<svg width="275" height="149" viewBox="0 0 275 149" fill="none" xmlns="http://www.w3.org/2000/svg">
<rect width="275" height="149" rx="22" fill="#313131"/>
<rect x="15" y="22" width="244" height="3" rx="1.5" fill="#F0F0F0"/>
<rect x="15" y="29" width="85" height="3" rx="1.5" fill="#F0F0F0"/>
<rect x="15" y="122" width="85" height="3" rx="1.5" fill="#F0F0F0"/>
<rect x="15" y="128" width="60" height="3" rx="1.5" fill="#F0F0F0"/>
<rect x="114" y="29" width="85" height="3" rx="1.5" fill="#F0F0F0"/>
<path d="M20.0391 78L21.8288 67.0909H23.5334L21.7436 78H20.0391ZM15.1545 75.294L15.4368 73.5895H23.9595L23.6772 75.294H15.1545ZM16.2038 78L17.9936 67.0909H19.6982L17.9084 78H16.2038ZM15.7777 71.5014L16.0653 69.7969H24.5881L24.3004 71.5014H15.7777ZM29.7803 78L31.57 67.0909H33.2746L31.4848 78H29.7803ZM24.8957 75.294L25.178 73.5895H33.7007L33.4184 75.294H24.8957ZM25.945 78L27.7348 67.0909H29.4394L27.6496 78H25.945ZM25.5189 71.5014L25.8066 69.7969H34.3293L34.0416 71.5014H25.5189ZM39.5215 78L41.3113 67.0909H43.0158L41.226 78H39.5215ZM34.6369 75.294L34.9192 73.5895H43.4419L43.1596 75.294H34.6369ZM35.6863 78L37.476 67.0909H39.1806L37.3908 78H35.6863ZM35.2601 71.5014L35.5478 69.7969H44.0705L43.7828 71.5014H35.2601ZM49.2627 78L51.0525 67.0909H52.757L50.9672 78H49.2627ZM44.3781 75.294L44.6604 73.5895H53.1831L52.9008 75.294H44.3781ZM45.4275 78L47.2172 67.0909H48.9218L47.132 78H45.4275ZM45.0013 71.5014L45.289 69.7969H53.8117L53.5241 71.5014H45.0013ZM59.0039 78L60.7937 67.0909H62.4982L60.7085 78H59.0039ZM54.1193 75.294L54.4016 73.5895H62.9244L62.642 75.294H54.1193ZM55.1687 78L56.9585 67.0909H58.663L56.8732 78H55.1687ZM54.7425 71.5014L55.0302 69.7969H63.5529L63.2653 71.5014H54.7425ZM68.7451 78L70.5349 67.0909H72.2394L70.4497 78H68.7451ZM63.8605 75.294L64.1428 73.5895H72.6656L72.3833 75.294H63.8605ZM64.9099 78L66.6997 67.0909H68.4042L66.6144 78H64.9099ZM64.4838 71.5014L64.7714 69.7969H73.2941L73.0065 71.5014H64.4838ZM78.4863 78L80.2761 67.0909H81.9806L80.1909 78H78.4863ZM73.6017 75.294L73.8841 73.5895H82.4068L82.1245 75.294H73.6017ZM74.6511 78L76.4409 67.0909H78.1454L76.3556 78H74.6511ZM74.225 71.5014L74.5126 69.7969H83.0353L82.7477 71.5014H74.225ZM88.2275 78L90.0173 67.0909H91.7219L89.9321 78H88.2275ZM83.343 75.294L83.6253 73.5895H92.148L91.8657 75.294H83.343ZM84.3923 78L86.1821 67.0909H87.8866L86.0969 78H84.3923ZM83.9662 71.5014L84.2538 69.7969H92.7765L92.4889 71.5014H83.9662ZM97.9688 78L99.7585 67.0909H101.463L99.6733 78H97.9688ZM93.0842 75.294L93.3665 73.5895H101.889L101.607 75.294H93.0842ZM94.1335 78L95.9233 67.0909H97.6278L95.8381 78H94.1335ZM93.7074 71.5014L93.995 69.7969H102.518L102.23 71.5014H93.7074ZM107.71 78L109.5 67.0909H111.204L109.415 78H107.71ZM102.825 75.294L103.108 73.5895H111.63L111.348 75.294H102.825ZM103.875 78L105.665 67.0909H107.369L105.579 78H103.875ZM103.449 71.5014L103.736 69.7969H112.259L111.971 71.5014H103.449ZM117.451 78L119.241 67.0909H120.945L119.156 78H117.451ZM112.567 75.294L112.849 73.5895H121.372L121.089 75.294H112.567ZM113.616 78L115.406 67.0909H117.11L115.32 78H113.616ZM113.19 71.5014L113.477 69.7969H122L121.713 71.5014H113.19ZM127.192 78L128.982 67.0909H130.687L128.897 78H127.192ZM122.308 75.294L122.59 73.5895H131.113L130.831 75.294H122.308ZM123.357 78L125.147 67.0909H126.851L125.062 78H123.357ZM122.931 71.5014L123.219 69.7969H131.741L131.454 71.5014H122.931Z" fill="#F0F0F0"/>
<path d="M164.695 131L166.008 123H167.258L165.945 131H164.695ZM161.113 129.016L161.32 127.766H167.57L167.363 129.016H161.113ZM161.883 131L163.195 123H164.445L163.133 131H161.883ZM161.57 126.234L161.781 124.984H168.031L167.82 126.234H161.57ZM171.839 131L173.151 123H174.401L173.089 131H171.839ZM168.257 129.016L168.464 127.766H174.714L174.507 129.016H168.257ZM169.026 131L170.339 123H171.589L170.276 131H169.026ZM168.714 126.234L168.925 124.984H175.175L174.964 126.234H168.714ZM178.982 131L180.295 123H181.545L180.232 131H178.982ZM175.4 129.016L175.607 127.766H181.857L181.65 129.016H175.4ZM176.17 131L177.482 123H178.732L177.42 131H176.17ZM175.857 126.234L176.068 124.984H182.318L182.107 126.234H175.857ZM186.126 131L187.438 123H188.688L187.376 131H186.126ZM182.544 129.016L182.751 127.766H189.001L188.794 129.016H182.544ZM183.313 131L184.626 123H185.876L184.563 131H183.313ZM183.001 126.234L183.212 124.984H189.462L189.251 126.234H183.001Z" fill="#F0F0F0"/>
<path d="M17.4513 93H15.3093L18.5732 83.5455H21.1491L24.4084 93H22.2663L19.8981 85.706H19.8242L17.4513 93ZM17.3175 89.2837H22.3771V90.8441H17.3175V89.2837ZM28.8979 93H25.5463V83.5455H28.9256C29.8766 83.5455 30.6953 83.7347 31.3816 84.1133C32.0679 84.4888 32.5957 85.0289 32.965 85.7337C33.3374 86.4384 33.5236 87.2817 33.5236 88.2635C33.5236 89.2483 33.3374 90.0947 32.965 90.8026C32.5957 91.5104 32.0648 92.0536 31.3723 92.4322C30.6829 92.8107 29.8581 93 28.8979 93ZM27.5453 91.2873H28.8148C29.4057 91.2873 29.9028 91.1826 30.3059 90.9734C30.7122 90.761 31.0169 90.4332 31.22 89.9901C31.4262 89.5438 31.5293 88.9683 31.5293 88.2635C31.5293 87.5649 31.4262 86.994 31.22 86.5508C31.0169 86.1076 30.7137 85.7814 30.3105 85.5721C29.9074 85.3628 29.4103 85.2582 28.8194 85.2582H27.5453V91.2873ZM35.0044 83.5455H37.4695L40.0732 89.8977H40.184L42.7877 83.5455H45.2529V93H43.314V86.8462H43.2355L40.7888 92.9538H39.4685L37.0218 86.8232H36.9433V93H35.0044V83.5455ZM48.8988 83.5455V93H46.8999V83.5455H48.8988ZM58.4514 83.5455V93H56.7249L52.6116 87.0494H52.5423V93H50.5434V83.5455H52.2977L56.3786 89.4915H56.4617V83.5455H58.4514ZM71.4537 86.8555H69.4317C69.3948 86.5939 69.3194 86.3615 69.2055 86.1584C69.0916 85.9522 68.9455 85.7768 68.767 85.6321C68.5885 85.4875 68.3823 85.3767 68.1483 85.2997C67.9175 85.2228 67.6667 85.1843 67.3959 85.1843C66.9065 85.1843 66.4803 85.3059 66.1171 85.549C65.7539 85.7891 65.4723 86.1399 65.2723 86.6016C65.0722 87.0601 64.9722 87.6172 64.9722 88.2727C64.9722 88.9467 65.0722 89.513 65.2723 89.9716C65.4754 90.4302 65.7586 90.7764 66.1217 91.0103C66.4849 91.2442 66.905 91.3612 67.382 91.3612C67.6498 91.3612 67.8975 91.3258 68.1253 91.255C68.3561 91.1842 68.5608 91.0811 68.7393 90.9457C68.9178 90.8072 69.0655 90.6394 69.1824 90.4425C69.3025 90.2455 69.3856 90.0208 69.4317 89.7685L71.4537 89.7777C71.4014 90.2116 71.2706 90.6302 71.0613 91.0334C70.8551 91.4335 70.5766 91.792 70.2258 92.109C69.878 92.4229 69.4625 92.6722 68.9793 92.8569C68.4992 93.0385 67.956 93.1293 67.3497 93.1293C66.5064 93.1293 65.7524 92.9384 65.0876 92.5568C64.4259 92.1752 63.9027 91.6228 63.518 90.8995C63.1364 90.1763 62.9456 89.3007 62.9456 88.2727C62.9456 87.2417 63.1395 86.3646 63.5273 85.6413C63.915 84.9181 64.4413 84.3672 65.1061 83.9886C65.7709 83.607 66.5187 83.4162 67.3497 83.4162C67.8975 83.4162 68.4053 83.4931 68.8731 83.647C69.344 83.8009 69.761 84.0256 70.1242 84.321C70.4874 84.6134 70.7828 84.9719 71.0106 85.3967C71.2414 85.8214 71.3891 86.3076 71.4537 86.8555ZM74.339 93H72.197L75.4608 83.5455H78.0368L81.2961 93H79.154L76.7858 85.706H76.7119L74.339 93ZM74.2052 89.2837H79.2648V90.8441H74.2052V89.2837ZM82.434 93V83.5455H86.1642C86.8782 83.5455 87.4875 83.6732 87.9923 83.9286C88.5001 84.181 88.8863 84.5395 89.151 85.0043C89.4188 85.4659 89.5526 86.0091 89.5526 86.6339C89.5526 87.2617 89.4172 87.8018 89.1464 88.2543C88.8756 88.7036 88.4832 89.0483 87.9692 89.2884C87.4583 89.5284 86.8397 89.6484 86.1134 89.6484H83.6159V88.0419H85.7902C86.1718 88.0419 86.4888 87.9896 86.7412 87.8849C86.9936 87.7803 87.1813 87.6233 87.3044 87.4141C87.4306 87.2048 87.4937 86.9447 87.4937 86.6339C87.4937 86.32 87.4306 86.0553 87.3044 85.8398C87.1813 85.6244 86.992 85.4613 86.7366 85.3505C86.4842 85.2366 86.1657 85.1797 85.781 85.1797H84.433V93H82.434ZM87.5399 88.6974L89.8896 93H87.683L85.384 88.6974H87.5399ZM94.3169 93H90.9653V83.5455H94.3445C95.2955 83.5455 96.1142 83.7347 96.8005 84.1133C97.4868 84.4888 98.0146 85.0289 98.384 85.7337C98.7564 86.4384 98.9426 87.2817 98.9426 88.2635C98.9426 89.2483 98.7564 90.0947 98.384 90.8026C98.0146 91.5104 97.4838 92.0536 96.7913 92.4322C96.1019 92.8107 95.2771 93 94.3169 93ZM92.9642 91.2873H94.2338C94.8247 91.2873 95.3217 91.1826 95.7249 90.9734C96.1311 90.761 96.4358 90.4332 96.6389 89.9901C96.8451 89.5438 96.9482 88.9683 96.9482 88.2635C96.9482 87.5649 96.8451 86.994 96.6389 86.5508C96.4358 86.1076 96.1327 85.7814 95.7295 85.5721C95.3263 85.3628 94.8293 85.2582 94.2384 85.2582H92.9642V91.2873Z" fill="#F0F0F0"/>
<path d="M169.173 55H165.822V45.5455H169.201C170.152 45.5455 170.971 45.7347 171.657 46.1133C172.343 46.4888 172.871 47.0289 173.24 47.7337C173.613 48.4384 173.799 49.2817 173.799 50.2635C173.799 51.2483 173.613 52.0947 173.24 52.8026C172.871 53.5104 172.34 54.0536 171.648 54.4322C170.958 54.8107 170.134 55 169.173 55ZM167.821 53.2873H169.09C169.681 53.2873 170.178 53.1826 170.581 52.9734C170.988 52.761 171.292 52.4332 171.495 51.9901C171.702 51.5438 171.805 50.9683 171.805 50.2635C171.805 49.5649 171.702 48.994 171.495 48.5508C171.292 48.1076 170.989 47.7814 170.586 47.5721C170.183 47.3628 169.686 47.2582 169.095 47.2582H167.821V53.2873ZM183.968 50.2727C183.968 51.3037 183.773 52.1809 183.382 52.9041C182.994 53.6274 182.465 54.1798 181.794 54.5614C181.126 54.94 180.375 55.1293 179.541 55.1293C178.701 55.1293 177.947 54.9384 177.279 54.5568C176.611 54.1752 176.083 53.6228 175.695 52.8995C175.307 52.1763 175.114 51.3007 175.114 50.2727C175.114 49.2417 175.307 48.3646 175.695 47.6413C176.083 46.9181 176.611 46.3672 177.279 45.9886C177.947 45.607 178.701 45.4162 179.541 45.4162C180.375 45.4162 181.126 45.607 181.794 45.9886C182.465 46.3672 182.994 46.9181 183.382 47.6413C183.773 48.3646 183.968 49.2417 183.968 50.2727ZM181.941 50.2727C181.941 49.6049 181.841 49.0417 181.641 48.5831C181.444 48.1245 181.166 47.7768 180.806 47.5398C180.446 47.3028 180.024 47.1843 179.541 47.1843C179.058 47.1843 178.636 47.3028 178.276 47.5398C177.916 47.7768 177.636 48.1245 177.436 48.5831C177.239 49.0417 177.14 49.6049 177.14 50.2727C177.14 50.9406 177.239 51.5038 177.436 51.9624C177.636 52.4209 177.916 52.7687 178.276 53.0057C178.636 53.2427 179.058 53.3612 179.541 53.3612C180.024 53.3612 180.446 53.2427 180.806 53.0057C181.166 52.7687 181.444 52.4209 181.641 51.9624C181.841 51.5038 181.941 50.9406 181.941 50.2727ZM184.657 47.1935V45.5455H192.422V47.1935H189.527V55H187.551V47.1935H184.657ZM201.609 45.5455V55H199.882L195.769 49.0494H195.7V55H193.701V45.5455H195.455L199.536 51.4915H199.619V45.5455H201.609ZM203.26 55V45.5455H209.631V47.1935H205.259V49.4464H209.303V51.0945H205.259V53.3519H209.649V55H203.26ZM210.86 47.1935V45.5455H218.625V47.1935H215.73V55H213.755V47.1935H210.86ZM222.913 55V45.5455H226.698C227.394 45.5455 227.974 45.6486 228.438 45.8548C228.903 46.061 229.253 46.3472 229.486 46.7134C229.72 47.0766 229.837 47.4951 229.837 47.9691C229.837 48.3384 229.763 48.6631 229.616 48.9432C229.468 49.2202 229.265 49.4479 229.006 49.6264C228.751 49.8018 228.458 49.9265 228.129 50.0004V50.0927C228.489 50.1081 228.826 50.2096 229.14 50.3974C229.457 50.5851 229.714 50.8482 229.911 51.1868C230.108 51.5223 230.207 51.9223 230.207 52.3871C230.207 52.8887 230.082 53.3365 229.833 53.7305C229.586 54.1213 229.222 54.4306 228.739 54.6584C228.255 54.8861 227.66 55 226.952 55H222.913ZM224.911 53.3658H226.541C227.098 53.3658 227.504 53.2596 227.76 53.0472C228.015 52.8318 228.143 52.5456 228.143 52.1886C228.143 51.927 228.08 51.6961 227.954 51.4961C227.828 51.296 227.648 51.1391 227.414 51.0252C227.183 50.9113 226.907 50.8544 226.587 50.8544H224.911V53.3658ZM224.911 49.5018H226.393C226.667 49.5018 226.91 49.4541 227.123 49.3587C227.338 49.2602 227.507 49.1217 227.631 48.9432C227.757 48.7647 227.82 48.5508 227.82 48.3015C227.82 47.9599 227.698 47.6844 227.455 47.4751C227.215 47.2659 226.873 47.1612 226.43 47.1612H224.911V49.5018ZM233.137 55H230.995L234.259 45.5455H236.835L240.094 55H237.952L235.584 47.706H235.51L233.137 55ZM233.003 51.2837H238.063V52.8441H233.003V51.2837ZM249.14 45.5455V55H247.413L243.3 49.0494H243.231V55H241.232V45.5455H242.986L247.067 51.4915H247.15V45.5455H249.14ZM250.791 55V45.5455H252.79V49.7141H252.915L256.317 45.5455H258.713L255.205 49.7788L258.755 55H256.364L253.774 51.1129L252.79 52.3132V55H250.791Z" fill="#F0F0F0"/>
<circle cx="215.907" cy="116.233" r="15.907" fill="#FF0000"/>
<circle cx="239.767" cy="116.233" r="16.8326" fill="#0037FF" stroke="#313131" stroke-width="0.8"/>
</svg>
